<?xml version="1.0" standalone="no"?>
<!DOCTYPE svg PUBLIC "-//W3C//DTD SVG 20010904//EN"
 "http://www.w3.org/TR/2001/REC-SVG-20010904/DTD/svg10.dtd">
<svg version="1.0" xmlns="http://www.w3.org/2000/svg"
 width="256.000000pt" height="256.000000pt" viewBox="0 0 256.000000 256.000000"
 preserveAspectRatio="xMidYMid meet">

<g transform="translate(0.000000,256.000000) scale(0.100000,-0.100000)"
fill="#000000" stroke="none">
<path d="M177 1786 c-50 -18 -67 -34 -88 -81 -17 -36 -19 -74 -19 -425 0 -380
0 -386 23 -430 13 -26 36 -53 57 -65 35 -20 49 -20 1130 -20 l1095 0 35 22
c19 12 44 37 55 55 19 31 20 53 23 428 3 394 3 395 -20 440 -14 26 -37 53 -58
65 -34 20 -51 20 -1115 22 -886 2 -1087 0 -1118 -11z m2193 -106 c19 -19 20
-33 20 -400 0 -367 -1 -381 -20 -400 -20 -20 -33 -20 -1090 -20 -1057 0 -1070
0 -1090 20 -19 19 -20 33 -20 400 0 367 1 381 20 400 20 20 33 20 1090 20
1057 0 1070 0 1090 -20z"/>
<path d="M296 1575 c-10 -26 -7 -94 4 -116 9 -16 22 -19 78 -19 37 0 73 4 80
9 9 5 12 27 10 72 l-3 64 -81 3 c-68 2 -83 0 -88 -13z"/>
<path d="M554 1576 c-3 -7 -4 -40 -2 -72 l3 -59 80 0 80 0 3 73 3 72 -81 0
c-59 0 -82 -4 -86 -14z"/>
<path d="M807 1583 c-4 -3 -7 -34 -7 -69 0 -47 4 -63 16 -68 28 -11 140 -6
152 6 12 12 16 95 6 122 -5 13 -22 16 -83 16 -43 0 -81 -3 -84 -7z"/>
<path d="M1057 1584 c-12 -12 -8 -119 5 -132 17 -17 142 -16 157 2 7 9 11 38
9 73 l-3 58 -80 3 c-45 1 -84 0 -88 -4z"/>
<path d="M1306 1568 c-10 -38 -7 -93 7 -112 10 -14 25 -16 87 -14 l75 3 0 70
0 70 -81 3 c-78 3 -82 2 -88 -20z"/>
<path d="M1564 1576 c-3 -7 -4 -40 -2 -72 l3 -59 80 0 80 0 3 73 3 72 -81 0
c-59 0 -82 -4 -86 -14z"/>
<path d="M1817 1584 c-4 -4 -7 -35 -7 -70 0 -72 2 -74 95 -74 78 0 87 10 83
87 l-3 58 -80 3 c-45 1 -84 0 -88 -4z"/>
<path d="M2066 1575 c-10 -28 -7 -110 6 -123 17 -17 142 -16 157 2 7 9 11 38
9 73 l-3 58 -81 3 c-68 2 -83 0 -88 -13z"/>
<path d="M427 1344 c-12 -12 -8 -119 5 -132 17 -17 142 -16 157 2 7 9 11 38 9
73 l-3 58 -80 3 c-45 1 -84 0 -88 -4z"/>
<path d="M676 1328 c-10 -38 -7 -93 7 -112 10 -14 25 -16 87 -14 l75 3 0 70 0
70 -81 3 c-78 3 -82 2 -88 -20z"/>
<path d="M934 1336 c-3 -7 -4 -40 -2 -72 l3 -59 75 -3 c85 -3 100 7 100 67 0
78 -3 81 -91 81 -58 0 -81 -4 -85 -14z"/>
<path d="M1184 1336 c-3 -7 -4 -40 -2 -72 l3 -59 73 -3 c90 -4 102 4 102 68 0
79 -2 80 -91 80 -58 0 -81 -4 -85 -14z"/>
<path d="M1436 1335 c-10 -28 -7 -110 6 -123 17 -17 142 -16 157 2 7 9 11 38
9 73 l-3 58 -81 3 c-68 2 -83 0 -88 -13z"/>
<path d="M1686 1328 c-10 -38 -7 -93 7 -112 10 -14 25 -16 87 -14 l75 3 0 70
0 70 -81 3 c-78 3 -82 2 -88 -20z"/>
<path d="M1944 1336 c-3 -7 -4 -40 -2 -72 l3 -59 75 -3 c87 -3 100 6 100 74 0
72 -3 74 -91 74 -58 0 -81 -4 -85 -14z"/>
<path d="M274 1096 c-3 -7 -4 -40 -2 -72 l3 -59 75 -3 c87 -3 100 6 100 74 0
72 -3 74 -91 74 -58 0 -81 -4 -85 -14z"/>
<path d="M517 1103 c-9 -8 -9 -106 -1 -127 6 -14 82 -16 760 -16 735 0 754 0
764 19 11 22 14 90 4 115 -6 14 -82 16 -763 16 -417 0 -761 -3 -764 -7z"/>
<path d="M2116 1095 c-12 -31 -6 -112 8 -124 9 -7 42 -11 88 -9 l73 3 0 70 0
70 -81 3 c-68 2 -83 0 -88 -13z"/>
</g>
</svg>
