<?xml version="1.0" standalone="no"?>
<!DOCTYPE svg PUBLIC "-//W3C//DTD SVG 20010904//EN"
 "http://www.w3.org/TR/2001/REC-SVG-20010904/DTD/svg10.dtd">
<svg version="1.0" xmlns="http://www.w3.org/2000/svg"
 width="256.000000pt" height="256.000000pt" viewBox="0 0 256.000000 256.000000"
 preserveAspectRatio="xMidYMid meet">

<g transform="translate(0.000000,256.000000) scale(0.100000,-0.100000)"
fill="#000000" stroke="none">
<path d="M1854 2455 c-296 -39 -760 -120 -1054 -185 -96 -21 -200 -41 -230
-45 -30 -3 -110 -15 -178 -27 -68 -11 -126 -17 -129 -14 -8 8 -55 -18 -77 -43
-16 -17 -17 -30 -12 -88 4 -37 11 -93 17 -124 6 -38 6 -66 -1 -84 -8 -21 -7
-33 4 -50 12 -18 12 -30 0 -81 -7 -32 -18 -122 -24 -199 -6 -77 -17 -192 -25
-255 -20 -161 -33 -350 -41 -593 l-7 -208 -26 23 c-24 22 -24 21 4 -16 16 -22
24 -37 19 -34 -5 4 -8 -21 -7 -60 2 -80 2 -82 12 -58 6 16 13 11 51 -33 28
-35 45 -48 50 -40 6 9 23 9 73 0 36 -6 105 -12 154 -12 48 0 92 -3 97 -7 6 -3
31 -5 57 -3 31 2 51 -3 62 -13 18 -19 31 -21 21 -5 -5 9 7 10 47 5 30 -4 74
-10 99 -12 25 -3 97 -11 160 -19 63 -8 148 -17 188 -21 40 -4 75 -11 78 -15 3
-5 10 -9 15 -9 6 0 7 5 3 11 -9 15 95 1 115 -15 12 -8 13 -8 7 2 -6 9 5 12 46
11 29 -1 57 -4 61 -6 5 -3 68 -6 142 -8 74 -2 138 -6 143 -9 11 -7 237 -19
362 -20 47 -1 88 -5 92 -11 11 -15 29 43 22 71 -4 17 0 29 14 42 27 24 60 308
72 632 10 252 28 460 39 460 4 0 7 28 6 63 0 48 3 61 14 59 12 -3 12 0 2 12
-18 22 -5 142 14 126 6 -5 2 12 -11 39 -37 77 -69 98 -161 106 -43 3 -114 10
-158 15 -44 5 -172 16 -285 25 -272 20 -415 32 -591 50 -81 8 -232 14 -336 13
-104 -1 -196 2 -203 7 -8 5 -34 8 -58 6 -40 -2 -72 11 -72 29 0 4 26 11 57 15
32 4 64 8 73 10 8 2 112 24 230 49 118 25 287 54 375 66 88 12 243 34 345 50
251 39 401 57 550 65 121 7 206 17 216 28 3 2 -9 56 -25 118 -31 120 -57 197
-63 190 -1 -3 -22 8 -45 22 -38 24 -52 27 -125 26 -46 0 -164 -11 -264 -24z
m359 -29 c42 -17 63 -50 83 -126 28 -108 7 -168 -42 -123 -11 10 -15 15 -10
11 15 -12 26 -9 26 6 0 20 -75 84 -186 160 l-94 63 53 10 c77 15 133 15 170
-1z m-241 -29 c19 -15 118 -212 118 -236 0 -22 -60 64 -105 152 -43 82 -43 82
-50 75 -3 -2 11 -43 30 -91 19 -48 35 -90 35 -94 0 -5 -23 35 -51 87 -55 103
-56 106 -65 98 -3 -4 11 -41 30 -84 20 -42 34 -79 32 -81 -8 -8 -106 150 -106
171 0 4 41 10 95 14 11 1 28 -4 37 -11z m-119 -72 c39 -92 33 -101 -14 -20
-23 39 -43 72 -46 75 -7 6 1 -36 12 -65 4 -11 -3 -5 -15 14 -25 39 -20 61 12
61 19 0 28 -12 51 -65z m-77 -6 l26 -51 -56 43 c-31 24 -56 47 -56 51 0 5 13
8 30 8 26 0 33 -7 56 -51z m-7 -56 c64 -54 132 -109 150 -123 l33 -25 -188
-28 -188 -27 -43 27 c-23 16 -87 69 -142 120 l-100 92 32 6 c31 6 304 52 320
54 5 1 61 -43 126 -96z m396 -11 c17 -15 24 -22 16 -17 -12 8 -13 4 -7 -30 7
-40 7 -40 -40 30 -57 84 -53 80 -60 72 -3 -3 6 -32 20 -64 34 -75 5 -38 -39
50 l-34 68 57 -41 c31 -22 71 -53 87 -68z m-920 16 c4 -13 25 -63 47 -112 66
-150 31 -113 -56 59 -43 86 -46 66 -6 -44 17 -46 29 -86 26 -88 -5 -6 -86 160
-86 176 0 6 -5 11 -10 11 -6 0 -3 -16 6 -37 31 -75 54 -134 53 -141 0 -11 -88
161 -88 175 -1 11 24 17 86 21 15 1 24 -5 28 -20z m65 -22 c0 -6 18 -39 39
-72 42 -66 61 -111 42 -100 -23 14 -131 189 -131 211 0 3 11 -2 25 -11 14 -9
25 -21 25 -28z m-175 -46 c16 -39 26 -72 23 -75 -5 -5 -78 125 -78 139 0 3 6
6 13 6 8 0 27 -32 42 -70z m-238 54 c-3 -3 -12 -4 -19 -1 -8 3 -5 6 6 6 11 1
17 -2 13 -5z m179 -29 c20 -48 17 -57 -6 -15 -20 36 -24 50 -14 50 3 0 12 -16
20 -35z m819 -3 c4 9 4 23 0 30 -4 7 4 0 17 -17 13 -16 33 -41 46 -55 l23 -25
-5 30 c-5 26 -2 23 18 -15 13 -25 21 -46 16 -48 -14 -5 -170 111 -170 127 0
11 8 6 24 -14 21 -26 25 -28 31 -13z m-1058 22 c-3 -3 -12 -4 -19 -1 -8 3 -5
6 6 6 11 1 17 -2 13 -5z m177 -10 c10 -25 1 -27 -19 -4 -15 17 -16 20 -3 20 9
0 19 -7 22 -16z m-5 -49 c29 -30 54 -55 57 -55 12 0 142 -115 133 -118 -10 -4
-60 29 -103 67 -17 15 -27 20 -24 11 2 -8 26 -31 51 -50 41 -30 44 -35 26 -38
-38 -6 -70 8 -122 55 -52 46 -52 46 5 -10 51 -51 54 -57 35 -61 -74 -15 -83
-14 -144 20 -34 19 -65 39 -68 44 -3 6 -16 15 -28 22 -44 23 3 -20 66 -61 57
-38 59 -40 35 -46 -36 -9 -184 78 -271 159 l-69 64 69 11 c315 53 287 54 352
-14z m1040 -7 l32 -48 -24 0 c-20 0 -26 6 -31 36 -4 19 -10 43 -13 52 -8 23
-2 16 36 -40z m-602 -71 c8 -16 12 -31 9 -34 -9 -9 -53 43 -76 88 l-22 44 37
-35 c20 -19 43 -48 52 -63z m778 50 c-19 -10 -20 -10 -30 21 -7 24 -7 24 20 6
23 -15 24 -18 10 -27z m-66 11 c12 -15 11 -18 -3 -18 -10 0 -16 8 -16 22 0 12
1 19 3 17 1 -2 9 -12 16 -21z m-1552 -30 c37 -38 133 -198 119 -198 -3 0 -35
45 -72 100 -36 56 -69 99 -71 96 -2 -2 8 -23 23 -47 33 -53 57 -109 46 -109
-8 0 -96 140 -108 173 -3 9 -11 17 -16 17 -5 0 9 -34 31 -76 38 -70 49 -104
24 -72 -25 32 -82 145 -76 151 19 20 61 5 100 -35z m-128 -16 c23 -45 38 -97
21 -69 -6 9 -16 14 -22 11 -7 -4 -8 -2 -4 4 4 6 -2 29 -14 51 -11 22 -20 43
-20 46 0 15 22 -10 39 -43z m42 -27 c20 -41 32 -72 26 -68 -6 4 -8 0 -4 -10 9
-24 0 -21 -14 4 -8 15 -8 19 0 15 17 -11 14 -1 -24 63 -36 62 -40 71 -27 71 4
-1 23 -34 43 -75z m-96 55 c-2 -4 5 -21 15 -38 11 -18 18 -32 17 -32 -2 0 -21
18 -42 40 -39 40 -39 40 -13 38 15 -1 25 -5 23 -8z m716 -35 c8 -16 6 -15 -10
4 -12 13 -21 28 -21 35 0 12 14 -5 31 -39z m984 35 c3 -5 1 -10 -4 -10 -6 0
-11 5 -11 10 0 6 2 10 4 10 3 0 8 -4 11 -10z m-1656 -113 c64 -61 118 -115
119 -119 9 -21 -55 -4 -92 23 l-41 31 33 -31 c39 -37 39 -41 6 -41 -15 0 -52
19 -87 45 l-62 46 45 -41 c25 -22 48 -40 53 -40 4 0 7 -4 7 -10 0 -14 -54 -12
-69 3 -10 10 -11 9 -6 -5 10 -25 -16 -23 -51 4 l-29 22 20 -24 20 -23 -39 6
c-22 4 -43 12 -48 19 -17 26 -32 95 -32 146 -1 67 26 96 94 99 43 3 45 2 159
-110z m888 58 c46 -62 47 -65 21 -65 -19 0 -27 10 -43 53 -11 28 -21 57 -24
62 -5 14 9 -2 46 -50z m-32 -73 c-13 -13 -39 16 -51 58 -8 25 -14 47 -14 49 0
2 16 -20 36 -49 19 -28 33 -55 29 -58z m175 30 c-7 -3 -16 2 -21 9 -16 25 -9
32 12 13 13 -12 16 -20 9 -22z m-284 1 c-7 -7 -26 7 -26 19 0 6 6 6 15 -2 9
-7 13 -15 11 -17z m224 2 c10 -12 10 -15 -4 -15 -9 0 -16 7 -16 15 0 8 2 15 4
15 2 0 9 -7 16 -15z m-170 -36 c0 -6 -4 -7 -10 -4 -5 3 -10 11 -10 16 0 6 5 7
10 4 6 -3 10 -11 10 -16z m-407 -62 c-5 -9 -28 4 -73 43 l-35 30 56 -32 c31
-18 55 -36 52 -41z m-238 13 c19 -37 19 -51 -1 -25 -26 34 -36 55 -25 55 6 0
17 -13 26 -30z m139 4 c7 -19 2 -18 -19 6 -16 17 -16 20 -3 15 9 -4 19 -13 22
-21z m-14 -19 c7 -9 8 -15 2 -15 -5 0 -12 7 -16 15 -3 8 -4 15 -2 15 2 0 9 -7
16 -15z m-150 -75 c-75 -17 -100 -19 -100 -10 0 9 41 16 100 17 l35 1 -35 -8z
m-127 -17 c-7 -2 -21 -2 -30 0 -10 3 -4 5 12 5 17 0 24 -2 18 -5z m-65 -10
c-10 -2 -28 -2 -40 0 -13 2 -5 4 17 4 22 1 32 -1 23 -4z m-128 -28 c19 -22 8
-25 -12 -3 -10 10 -14 18 -9 18 5 0 14 -7 21 -15z m241 -2 c13 -15 11 -16 -21
-9 -19 5 -48 8 -65 8 -29 0 -29 0 -5 8 42 13 77 11 91 -7z m-84 -79 c35 -31
66 -54 69 -51 3 3 -22 27 -55 53 -33 27 -58 50 -56 52 2 2 21 1 42 -3 24 -4
54 -21 82 -46 l44 -39 -24 -26 c-35 -38 -124 -104 -139 -104 -8 0 -25 10 -39
23 l-26 22 24 -27 c30 -35 21 -47 -32 -41 -32 4 -49 14 -74 42 -34 38 -40 68
-22 120 13 38 34 39 73 4 22 -20 25 -21 9 -4 l-21 24 21 28 c11 16 30 29 40
29 11 0 49 -25 84 -56z m162 11 c11 -11 10 -15 -6 -24 -16 -8 -26 -5 -54 20
l-34 30 40 -6 c22 -4 46 -12 54 -20z m81 3 c0 -7 19 -30 42 -50 24 -20 40 -40
35 -44 -4 -4 -27 14 -52 39 -44 46 -55 67 -35 67 6 0 10 -6 10 -12z m94 -25
c14 -20 24 -39 21 -41 -6 -6 -85 58 -85 69 0 24 42 6 64 -28z m123 21 c-3 -3
-12 -4 -19 -1 -8 3 -5 6 6 6 11 1 17 -2 13 -5z m278 -20 c213 -17 214 -17 257
-76 27 -38 17 -35 -37 12 -62 54 -76 51 -26 -7 23 -25 39 -48 37 -51 -8 -8
-86 59 -86 74 0 35 -40 8 -260 -174 l-27 -22 -174 16 c-96 9 -176 18 -178 20
-11 10 55 65 71 60 13 -3 18 2 18 15 0 10 6 19 14 19 8 0 17 7 20 15 4 12 10
14 25 5 28 -14 36 -13 21 5 -10 12 -10 18 0 30 12 14 15 14 36 0 13 -8 34 -15
46 -15 20 1 18 3 -9 15 -35 15 -42 32 -18 41 8 4 32 -9 57 -30 23 -20 46 -36
52 -36 6 0 -13 21 -42 46 -28 25 -52 49 -52 53 0 4 12 6 28 5 15 -2 117 -11
227 -20z m-446 -95 l16 -24 -24 16 c-14 8 -41 35 -60 60 l-36 44 44 -36 c25
-19 52 -46 60 -60z m727 71 c7 0 21 -14 30 -31 l16 -31 -32 18 c-17 11 -39 28
-48 38 -16 18 -16 19 1 13 10 -4 25 -7 33 -7z m-802 -42 c56 -65 45 -84 -14
-23 -19 19 -30 35 -26 35 5 0 3 7 -4 15 -8 9 -8 15 -2 15 6 0 27 -19 46 -42z
m894 7 c1 -1 -4 -7 -11 -13 -11 -9 -16 -6 -25 13 -11 24 -11 25 11 14 12 -6
23 -13 25 -14z m325 4 c92 -7 167 -16 167 -21 0 -4 -4 -8 -8 -8 -12 0 -190
-142 -237 -189 l-40 -39 -180 17 -180 16 0 25 c0 15 5 24 13 23 6 -2 12 3 12
11 0 7 35 41 78 74 43 33 89 72 103 87 20 22 30 25 64 21 22 -3 115 -11 208
-17z m-1276 -16 c62 -80 67 -100 8 -36 -45 49 -53 38 -13 -18 l32 -44 -29 25
c-16 14 -35 32 -41 40 -26 32 -22 1 4 -36 47 -65 46 -72 -2 -19 l-46 50 30 28
c36 32 39 32 57 10z m790 -97 c11 -22 12 -26 1 -20 -28 16 -118 87 -118 92 0
2 8 11 18 18 15 12 21 9 50 -24 19 -20 41 -50 49 -66z m798 64 c25 -48 17 -56
-20 -20 -40 39 -43 50 -15 50 11 0 26 -12 35 -30z m-52 -31 c16 -28 27 -52 25
-54 -9 -9 -90 84 -84 94 14 22 32 10 59 -40z m127 30 c11 -19 10 -20 -9 -10
-27 15 -36 31 -17 31 8 0 20 -9 26 -21z m-760 -4 c0 -12 -19 -12 -23 0 -4 9
-1 12 9 8 7 -3 14 -7 14 -8z m-196 -47 c61 -70 59 -85 -4 -23 -56 55 -73 54
-40 -2 l23 -38 -42 40 -41 40 22 17 c13 10 26 18 30 18 3 0 27 -24 52 -52z
m938 0 c-14 -14 -17 -11 -26 27 l-7 30 22 -22 c18 -18 21 -25 11 -35z m-1992
9 c20 -25 21 -30 7 -24 -10 4 -25 7 -33 7 -8 0 -14 10 -14 25 0 33 9 31 40 -8z
m280 -9 c29 -40 30 -41 3 -10 -29 32 -51 43 -37 20 5 -10 4 -10 -6 -1 -10 9
-7 33 5 33 2 0 18 -19 35 -42z m1554 2 c15 -23 31 -53 37 -68 8 -22 0 -17 -45
27 -43 42 -53 58 -44 68 16 20 23 16 52 -27z m267 10 c10 0 12 -34 3 -78 l-6
-31 -20 22 c-18 20 -18 19 1 -9 17 -26 20 -41 15 -78 -4 -25 -12 -46 -18 -46
-5 0 -35 24 -66 53 -30 28 -43 39 -30 22 14 -16 34 -41 45 -53 l20 -24 -50 7
c-28 4 -53 12 -56 18 -4 6 -8 5 -10 -2 -3 -8 -20 -9 -52 -5 l-47 7 26 26 c64
65 229 196 232 184 2 -7 8 -13 13 -13z m-895 12 c7 -4 1 -15 -16 -29 -24 -20
-29 -21 -34 -7 -4 12 -2 15 9 10 10 -4 15 1 15 14 0 21 8 25 26 12z m-766 -22
c0 -5 -4 -10 -10 -10 -5 0 -10 5 -10 10 0 6 5 10 10 10 6 0 10 -4 10 -10z
m1354 -51 c20 -34 35 -63 33 -66 -8 -7 -89 106 -82 117 9 15 10 15 49 -51z
m155 15 c-15 -19 -15 -18 -27 16 l-11 30 25 -16 c19 -13 22 -20 13 -30z m-979
-6 c18 -33 20 -40 6 -29 -31 26 -59 71 -44 71 8 0 25 -19 38 -42z m-28 -21
c10 -19 8 -18 -21 2 -17 13 -29 27 -25 32 7 12 30 -6 46 -34z m812 -14 l27
-58 -48 48 c-39 39 -45 49 -33 57 23 15 24 14 54 -47z m156 5 c0 -18 -17 -7
-29 19 -13 28 -13 28 8 9 12 -11 21 -23 21 -28z m-1845 8 c7 -9 16 -16 20 -16
4 0 1 7 -6 17 -13 15 -10 16 36 10 28 -3 91 -9 140 -13 50 -3 100 -12 112 -20
13 -8 23 -10 25 -3 2 6 90 1 248 -16 135 -14 255 -25 268 -25 12 0 254 -22
537 -50 l515 -49 28 -33 c15 -18 40 -46 56 -63 l29 -29 -7 -101 c-3 -55 -13
-180 -23 -279 l-16 -179 -41 44 c-23 24 -70 76 -105 114 -57 64 -56 61 17 -30
44 -55 90 -110 101 -122 16 -16 21 -35 21 -72 0 -27 -4 -52 -8 -55 -9 -5 -56
45 -161 173 l-53 66 7 55 c3 30 6 73 5 94 0 21 2 52 5 68 6 28 9 25 97 -84 49
-62 95 -115 101 -117 16 -6 -3 19 -106 140 -73 86 -87 109 -83 130 5 24 2 26
-67 37 -211 34 -588 74 -962 102 -77 5 -245 20 -372 32 -209 20 -233 24 -233
40 0 10 -7 18 -15 18 -8 0 -15 -7 -15 -15 0 -8 -7 -15 -15 -15 -8 0 -15 -4
-15 -10 0 -5 7 -10 15 -10 18 0 21 -66 4 -72 -7 -2 -15 -55 -21 -138 -8 -119
-29 -295 -44 -371 -4 -15 0 -32 8 -40 8 -8 14 -18 14 -23 -1 -4 24 -9 54 -11
185 -11 255 -17 263 -22 5 -3 28 -6 51 -7 22 -1 122 -10 222 -21 l181 -18 34
-51 c69 -102 153 -212 192 -253 l41 -43 -29 0 c-26 0 -42 15 -119 110 -48 61
-90 110 -93 110 -2 0 32 -48 77 -106 45 -58 80 -107 78 -108 -1 -2 -25 0 -53
3 -50 6 -51 7 -135 112 -47 59 -95 120 -108 135 -13 16 2 -9 34 -56 31 -47 75
-107 96 -133 22 -27 39 -50 37 -51 -2 -2 -20 -1 -40 1 -31 4 -45 16 -98 84
-35 43 -65 79 -67 79 -3 0 23 -36 56 -80 35 -46 55 -80 47 -80 -8 0 -35 3 -61
6 -45 7 -50 11 -132 110 -47 57 -87 104 -90 104 -2 0 32 -46 76 -101 45 -56
79 -103 77 -105 -2 -2 -25 -1 -51 2 -47 7 -50 10 -124 107 -43 55 -85 110 -95
121 -31 36 75 -116 116 -167 22 -26 37 -50 34 -54 -3 -3 -21 -3 -39 1 -26 5
-47 22 -90 74 -91 108 -102 119 -72 77 15 -22 48 -64 73 -94 l45 -54 -54 6
c-49 6 -58 11 -95 54 -22 27 -57 66 -78 88 -21 22 -7 2 31 -45 39 -47 69 -86
67 -88 -1 -2 -25 0 -53 4 -48 6 -53 10 -98 70 -61 84 -69 83 -10 -1 l45 -65
-27 0 c-34 0 -59 26 -137 140 -32 47 -63 90 -68 95 -18 19 12 -31 76 -127 l66
-98 -34 0 c-34 0 -57 27 -218 250 -11 15 -14 17 -8 5 5 -11 46 -72 90 -135 44
-63 79 -116 77 -117 -1 -2 -17 0 -34 3 -24 5 -49 27 -97 83 -36 42 -65 84 -65
93 0 9 11 111 24 225 14 114 27 244 31 288 3 44 8 95 11 114 l5 33 27 -23 27
-24 -27 31 c-33 35 -41 97 -10 73 16 -13 16 -13 -1 7 -17 21 -24 64 -9 64 5 0
18 -9 31 -21 12 -12 25 -19 27 -16 3 3 -8 15 -25 28 -26 19 -31 29 -31 66 l0
44 31 -36 c17 -19 35 -35 40 -35 5 0 -9 19 -31 41 -33 35 -40 48 -40 82 l0 41
53 -49 52 -50 -52 55 c-44 46 -53 62 -53 92 0 63 7 71 58 65 25 -3 51 -12 57
-21z m836 -8 c9 -16 8 -19 -3 -13 -28 16 -38 28 -32 36 7 12 21 3 35 -23z
m189 -27 c-1 -13 -4 -12 -16 4 -9 11 -20 29 -26 40 -9 17 -6 16 16 -4 14 -14
26 -32 26 -40z m623 -1 c16 -29 23 -50 16 -50 -8 0 -8 -4 1 -15 9 -10 9 -15 1
-15 -6 0 -12 6 -12 13 -1 6 -2 17 -3 23 -1 12 -52 74 -61 74 -4 0 5 -21 19
-47 15 -25 25 -48 22 -50 -5 -5 -66 65 -66 77 0 9 39 40 50 40 3 0 18 -23 33
-50z m-683 15 c13 -14 19 -25 13 -25 -6 0 -18 11 -27 25 -9 14 -15 25 -13 25
2 0 14 -11 27 -25z m819 1 c14 -15 18 -26 12 -30 -6 -4 -17 7 -26 24 -19 36
-16 38 14 6z m-989 6 c0 -13 -12 -22 -22 -16 -10 6 -1 24 13 24 5 0 9 -4 9 -8z
m948 -43 c14 -17 19 -29 13 -33 -9 -6 -41 41 -41 60 0 4 1 5 3 3 1 -2 12 -16
25 -30z m-173 -6 c10 -16 12 -22 4 -15 -22 20 -34 14 -14 -8 16 -18 16 -20 2
-20 -10 0 -18 3 -18 8 -7 42 -6 62 0 62 5 0 17 -12 26 -27z m-508 11 c-3 -3
-12 -4 -19 -1 -8 3 -5 6 6 6 11 1 17 -2 13 -5z m679 -71 c-9 -10 -39 13 -53
41 l-15 31 36 -34 c19 -19 34 -36 32 -38z m-231 37 c3 -5 -3 -10 -15 -10 -12
0 -18 5 -15 10 3 6 10 10 15 10 5 0 12 -4 15 -10z m497 -96 c11 -7 10 -84 -1
-84 -9 0 -91 86 -91 96 0 7 77 -3 92 -12z m-1773 -100 c2 -2 -17 -4 -42 -4
-26 0 -47 -4 -47 -8 0 -5 75 -12 168 -15 92 -4 187 -9 212 -13 l45 -6 -6 -132
c-3 -73 -9 -137 -13 -144 -4 -7 -18 -12 -31 -12 -28 0 -394 48 -411 54 -7 3
-8 29 -3 82 5 44 11 109 14 146 l6 67 52 -6 c29 -3 54 -7 56 -9z m751 -78
l245 -21 -1 -32 c-3 -209 -5 -241 -16 -255 -12 -14 -41 -13 -303 13 -159 15
-296 28 -302 29 -20 0 -16 86 8 176 26 99 26 98 14 102 -5 2 -15 -11 -22 -30
l-12 -33 0 42 -1 42 73 -6 c39 -3 182 -15 317 -27z m479 -51 c102 -14 199 -23
217 -19 19 3 34 1 39 -5 3 -6 -1 -61 -11 -121 -15 -99 -18 -109 -33 -98 -13
10 -14 10 -3 -2 14 -16 16 -56 3 -64 -4 -3 -46 -3 -92 1 -77 6 -87 9 -114 37
l-29 31 18 -29 18 -29 -73 7 c-147 13 -159 16 -159 40 0 16 32 276 34 276 1 0
84 -11 185 -25z m-883 -213 c-11 -10 -15 4 -8 28 l7 25 3 -23 c2 -13 1 -26 -2
-30z m-275 7 c110 -11 211 -24 224 -29 13 -5 25 -6 29 -3 3 3 13 2 23 -2 10
-4 36 -8 58 -10 22 -1 141 -14 265 -28 124 -15 308 -34 410 -43 179 -16 186
-17 205 -42 11 -15 44 -56 73 -92 49 -61 52 -68 50 -115 -3 -49 -4 -50 -36
-53 -18 -2 -39 1 -45 6 -7 5 -73 15 -147 22 -132 12 -136 13 -163 43 -28 32
-28 32 -11 3 l18 -29 -89 7 c-50 4 -110 6 -134 6 -28 -1 -50 5 -64 17 -11 10
-17 12 -12 4 6 -11 -6 -13 -73 -9 -49 3 -88 10 -98 19 -12 9 -15 9 -10 2 9
-16 25 -17 -210 7 -110 11 -224 22 -254 25 -30 3 -98 11 -150 17 -52 6 -103
11 -112 10 -20 -1 -22 28 -8 83 7 27 8 25 10 -20 l2 -50 9 50 c5 28 7 75 4
105 -3 41 -2 47 4 25 8 -29 9 -29 10 10 1 41 10 85 17 85 2 0 94 -9 205 -21z
m1365 -143 c3 -2 -19 -141 -23 -145 -4 -5 -63 63 -106 120 l-28 38 78 -6 c43
-3 79 -6 79 -7z m111 -48 c21 -29 66 -85 100 -125 45 -52 63 -80 63 -100 0
-60 -14 -53 -118 60 -91 99 -102 115 -102 148 0 34 8 69 15 69 2 0 21 -24 42
-52z m-93 -87 c-4 -28 -9 -50 -11 -47 -3 3 -2 28 2 56 4 28 9 49 12 47 2 -3 1
-28 -3 -56z m146 -104 l101 -118 -14 -124 c-8 -68 -20 -131 -27 -140 -7 -8
-24 -15 -39 -14 -21 0 -49 29 -159 167 l-133 167 32 3 c22 2 37 -2 45 -12 6
-9 17 -16 25 -17 8 0 55 -50 104 -110 96 -117 147 -171 127 -134 -12 23 -69
92 -161 194 -62 70 -63 71 -35 72 28 0 28 1 7 9 -24 10 -29 26 -14 48 5 9 34
-16 102 -89 51 -55 95 -96 97 -89 3 7 -24 42 -59 79 -135 140 -130 132 -123
184 4 26 10 46 15 45 4 -2 53 -56 109 -121z m-845 -3 c77 -4 101 -8 112 -22
12 -16 13 -16 7 0 -5 16 -1 17 42 12 27 -4 55 -12 63 -18 12 -9 13 -8 6 3 -6
11 -4 13 9 8 10 -4 27 -7 39 -7 15 0 36 -20 67 -63 52 -71 189 -235 213 -256
26 -21 20 -31 -15 -31 -65 0 -77 10 -169 141 -129 183 -127 165 3 -29 66 -97
67 -102 29 -102 -41 0 -52 13 -244 270 -18 25 -18 25 -1 -5 29 -52 142 -210
158 -224 26 -22 18 -31 -28 -31 -40 0 -48 4 -79 43 -20 23 -68 92 -109 154
-99 151 -104 157 -66 88 37 -70 102 -172 148 -232 31 -43 31 -43 8 -43 -18 0
-43 28 -116 128 -152 210 -163 217 -27 17 104 -152 100 -145 79 -145 -9 0 -35
19 -57 43 -44 46 -237 301 -237 312 0 4 15 4 34 1 18 -4 77 -9 131 -12z m455
-40 c111 -8 89 10 254 -206 l105 -138 -93 0 c-78 0 -97 3 -119 20 -26 21 -265
299 -281 327 -7 13 -4 15 15 10 13 -3 67 -9 119 -13z m-1549 -176 c18 -33 -8
-18 -50 27 -22 24 -41 53 -41 62 1 13 12 5 41 -27 21 -25 44 -53 50 -62z"/>
<path d="M885 2091 c9 -15 126 -94 131 -88 2 2 -28 25 -67 51 -39 26 -68 43
-64 37z"/>
<path d="M420 1996 c0 -2 8 -10 18 -17 15 -13 16 -12 3 4 -13 16 -21 21 -21
13z"/>
<path d="M330 1783 c0 -12 36 -45 75 -69 34 -20 28 -13 -32 41 -24 20 -43 33
-43 28z"/>
<path d="M266 1699 c25 -31 64 -65 64 -56 0 1 -21 23 -47 47 -41 40 -43 41
-17 9z"/>
<path d="M245 1480 c22 -25 41 -47 43 -49 1 -2 4 -2 7 0 2 3 -17 25 -43 50
l-47 44 40 -45z"/>
<path d="M2130 1336 c0 -2 8 -10 18 -17 15 -13 16 -12 3 4 -13 16 -21 21 -21
13z"/>
<path d="M2197 1255 c50 -61 103 -112 103 -99 0 5 -32 41 -72 79 -62 61 -66
63 -31 20z"/>
<path d="M2076 1260 c4 -8 42 -55 83 -104 42 -48 84 -98 93 -110 9 -11 20 -18
23 -14 4 4 -26 44 -66 89 -109 121 -142 156 -133 139z"/>
<path d="M2070 1158 c86 -113 200 -241 208 -234 2 3 -23 35 -56 71 -34 36 -96
108 -138 160 -42 52 -78 95 -80 95 -3 0 27 -42 66 -92z"/>
<path d="M760 456 c0 -2 8 -10 18 -17 15 -13 16 -12 3 4 -13 16 -21 21 -21 13z"/>
<path d="M450 446 c0 -2 8 -10 18 -17 15 -13 16 -12 3 4 -13 16 -21 21 -21 13z"/>
<path d="M1120 436 c0 -2 8 -10 18 -17 15 -13 16 -12 3 4 -13 16 -21 21 -21
13z"/>
<path d="M940 396 c0 -2 8 -10 18 -17 15 -13 16 -12 3 4 -13 16 -21 21 -21 13z"/>
<path d="M1885 560 c10 -11 20 -20 23 -20 3 0 -3 9 -13 20 -10 11 -20 20 -23
20 -3 0 3 -9 13 -20z"/>
<path d="M1925 510 c10 -11 20 -20 23 -20 3 0 -3 9 -13 20 -10 11 -20 20 -23
20 -3 0 3 -9 13 -20z"/>
<path d="M1846 363 c40 -57 97 -132 151 -201 7 -9 16 -13 19 -9 3 3 -18 35
-48 70 -30 35 -78 96 -107 135 -68 91 -78 94 -15 5z"/>
<path d="M2420 1526 c0 -2 8 -10 18 -17 15 -13 16 -12 3 4 -13 16 -21 21 -21
13z"/>
</g>
</svg>
