<?xml version="1.0" standalone="no"?>
<!DOCTYPE svg PUBLIC "-//W3C//DTD SVG 20010904//EN"
 "http://www.w3.org/TR/2001/REC-SVG-20010904/DTD/svg10.dtd">
<svg version="1.0" xmlns="http://www.w3.org/2000/svg"
 width="256.000000pt" height="256.000000pt" viewBox="0 0 256.000000 256.000000"
 preserveAspectRatio="xMidYMid meet">

<g transform="translate(0.000000,256.000000) scale(0.100000,-0.100000)"
fill="#000000" stroke="none">
<path d="M713 1868 l-553 -532 0 -176 c0 -240 5 -244 143 -114 l92 86 3 -472
c1 -329 6 -477 13 -487 16 -18 1718 -20 1737 -1 9 9 12 130 12 485 0 260 3
473 8 473 4 0 45 -38 92 -85 131 -132 140 -125 140 115 l0 176 -550 529 c-303
292 -559 531 -568 533 -11 1 -220 -193 -569 -530z m1093 -68 l514 -495 0 -104
0 -105 -42 40 c-24 22 -253 244 -510 492 -257 249 -474 452 -482 452 -8 0
-239 -215 -513 -477 -274 -263 -506 -484 -516 -492 -16 -13 -17 -6 -17 90 l0
104 517 498 c285 273 521 496 526 494 5 -1 240 -225 523 -497z m-117 -204
l391 -378 0 -489 0 -489 -800 0 -800 0 0 488 0 487 398 382 c218 210 402 381
408 380 6 -1 188 -172 403 -381z"/>
<path d="M1155 1586 c-235 -54 -409 -209 -482 -430 -22 -69 -27 -98 -27 -196
0 -98 4 -127 28 -197 65 -199 222 -352 426 -414 109 -34 264 -32 375 4 199 65
353 223 417 427 33 108 31 263 -5 376 -46 140 -131 251 -254 334 -135 90 -331
130 -478 96z m250 -81 c255 -60 435 -285 435 -545 0 -91 -17 -159 -61 -249
-133 -270 -459 -386 -729 -260 -205 96 -330 288 -330 509 0 258 178 483 430
545 73 18 181 18 255 0z"/>
<path d="M1100 1348 c-78 -41 -73 -188 7 -219 81 -31 154 61 124 154 -21 62
-80 91 -131 65z m55 -109 c0 -24 -5 -34 -15 -34 -16 0 -25 37 -16 62 10 26 31
8 31 -28z"/>
<path d="M1380 1348 c-78 -41 -73 -188 7 -219 81 -31 154 61 124 154 -21 62
-80 91 -131 65z m55 -109 c0 -24 -5 -34 -15 -34 -16 0 -25 37 -16 62 10 26 31
8 31 -28z"/>
<path d="M900 1108 c-78 -41 -73 -188 7 -219 81 -31 154 61 124 154 -21 62
-80 91 -131 65z m55 -109 c0 -24 -5 -34 -15 -34 -16 0 -25 37 -16 62 10 26 31
8 31 -28z"/>
<path d="M1580 1108 c-78 -41 -73 -188 7 -219 81 -31 154 61 124 154 -21 62
-80 91 -131 65z m55 -109 c0 -24 -5 -34 -15 -34 -16 0 -25 37 -16 62 10 26 31
8 31 -28z"/>
<path d="M1192 1053 c-54 -30 -182 -176 -208 -239 -51 -121 37 -264 154 -249
24 2 66 17 92 32 l48 27 63 -32 c73 -38 110 -40 164 -9 75 42 106 146 71 232
-14 33 -131 180 -173 217 -28 25 -88 48 -127 48 -18 0 -56 -12 -84 -27z m146
-69 c35 -22 160 -176 173 -214 8 -21 7 -40 -1 -65 -23 -68 -81 -83 -146 -38
-53 37 -115 37 -168 0 -63 -44 -116 -33 -142 30 -9 21 -13 47 -9 64 7 32 145
207 179 226 30 17 83 16 114 -3z"/>
</g>
</svg>
