<?xml version="1.0" standalone="no"?>
<!DOCTYPE svg PUBLIC "-//W3C//DTD SVG 20010904//EN"
 "http://www.w3.org/TR/2001/REC-SVG-20010904/DTD/svg10.dtd">
<svg version="1.0" xmlns="http://www.w3.org/2000/svg"
 width="256.000000pt" height="256.000000pt" viewBox="0 0 256.000000 256.000000"
 preserveAspectRatio="xMidYMid meet">

<g transform="translate(0.000000,256.000000) scale(0.100000,-0.100000)"
fill="#000000" stroke="none">
<path d="M1227 2488 c-196 -17 -452 -111 -615 -224 -35 -24 -65 -44 -67 -44
-2 0 -33 -28 -71 -62 -67 -63 -192 -216 -220 -270 -9 -17 -20 -26 -26 -22 -6
4 -8 3 -5 -3 4 -6 -9 -44 -28 -85 -50 -109 -82 -213 -101 -334 -16 -93 -16
-125 -6 -243 7 -86 21 -169 37 -226 30 -106 122 -298 197 -410 85 -129 315
-348 365 -348 7 0 13 -4 13 -7 0 -24 263 -120 400 -147 122 -24 336 -22 460 4
180 39 342 117 493 240 40 32 77 56 82 55 6 -2 7 0 3 4 -4 4 25 42 65 84 83
88 194 247 231 332 69 155 101 344 93 548 -6 166 -35 288 -103 428 -26 53 -48
99 -49 102 0 3 -18 31 -38 62 -20 31 -37 61 -37 66 0 5 -31 41 -68 80 -37 39
-64 68 -58 65 5 -4 6 -1 2 6 -5 7 -11 10 -14 7 -3 -3 -14 2 -25 11 -15 13 -18
14 -12 3 5 -9 0 -8 -13 4 -24 20 -30 42 -9 30 8 -5 8 -3 -2 9 -14 18 -36 13
-25 -5 7 -10 -106 70 -116 83 -3 4 -61 34 -129 68 -148 75 -305 129 -392 136
-35 3 -77 7 -94 9 -16 1 -69 -1 -118 -6z m126 -25 c-7 -2 -19 -2 -25 0 -7 3
-2 5 12 5 14 0 19 -2 13 -5z m84 1 c-3 -3 -12 -4 -19 -1 -8 3 -5 6 6 6 11 1
17 -2 13 -5z m47 -35 c240 -33 448 -141 636 -329 86 -86 190 -220 206 -267 4
-10 13 -25 19 -33 7 -8 22 -37 34 -64 18 -42 19 -47 4 -42 -10 4 -7 -3 8 -17
24 -21 42 -72 75 -212 l7 -29 -29 17 -29 18 30 -25 30 -26 3 -141 c3 -134 3
-141 -15 -135 -16 5 -16 5 -2 -6 22 -18 14 -92 -9 -83 -12 4 -13 3 -2 -10 11
-13 10 -27 -5 -80 -9 -36 -20 -65 -24 -65 -3 0 -23 11 -44 25 -20 14 -37 23
-37 21 0 -3 18 -18 40 -32 47 -31 47 -28 -11 -153 l-39 -83 -27 16 -28 17 23
-20 c24 -21 20 -56 -6 -46 -11 4 -12 2 -4 -7 16 -20 -19 -63 -44 -55 -18 7
-18 6 -1 -7 16 -13 13 -18 -45 -78 -96 -98 -104 -103 -125 -87 -16 13 -17 12
-4 -4 8 -9 12 -19 10 -20 -2 -2 -32 -24 -66 -49 -34 -25 -106 -68 -162 -97
l-100 -51 -38 21 c-21 11 -29 14 -19 5 11 -9 23 -16 28 -16 4 0 8 -4 8 -10 0
-5 -18 -15 -40 -21 -36 -11 -43 -10 -80 15 -22 14 -40 24 -40 22 0 -3 16 -16
35 -29 l36 -24 -61 -17 c-33 -10 -83 -19 -110 -21 -27 -1 -53 -5 -58 -8 -16
-11 -137 -5 -151 6 -12 10 -13 9 -7 -2 7 -11 -4 -12 -62 -7 -114 10 -167 22
-292 64 -72 24 -199 90 -270 140 -135 96 -294 272 -355 391 -28 56 -83 215
-89 262 -3 19 -10 61 -15 94 -5 33 -8 114 -7 180 1 114 2 120 21 117 18 -2 18
-2 3 8 -29 18 -19 126 10 115 12 -4 13 -3 3 9 -10 12 -10 23 -1 51 12 36 12
36 33 18 l22 -18 -19 23 c-17 20 -18 26 -6 62 13 40 23 49 35 30 3 -5 11 -10
18 -10 6 0 1 7 -11 16 -21 14 -21 16 -6 52 9 20 20 48 25 61 8 20 11 21 26 10
15 -13 15 -12 3 7 -11 18 -11 27 0 53 l13 32 28 -27 c16 -15 29 -25 29 -23 0
3 -13 18 -30 34 l-29 28 -57 -114 c-31 -63 -54 -102 -50 -87 3 15 2 30 -4 33
-13 8 18 70 78 155 25 36 49 69 54 74 5 6 23 -4 45 -25 l38 -34 -32 35 c-18
20 -33 39 -33 44 0 12 122 147 128 141 3 -3 12 5 20 16 8 12 51 48 96 81 167
124 456 240 518 207 21 -11 22 -11 10 4 -12 14 -9 16 20 20 70 8 250 7 322 -4z
m741 -359 c10 -11 16 -20 13 -20 -3 0 -13 9 -23 20 -10 11 -16 20 -13 20 3 0
13 -9 23 -20z m-2009 -394 c-1 -19 -3 -33 -6 -31 -3 2 -18 -50 -34 -116 -18
-71 -34 -118 -40 -116 -13 5 -11 100 2 105 6 2 8 11 5 21 -5 19 54 171 66 171
4 0 7 -15 7 -34z m-84 -322 c-6 -75 -22 -79 -22 -5 0 46 3 62 13 58 8 -3 11
-20 9 -53z m15 -111 c-3 -10 -5 -2 -5 17 0 19 2 27 5 18 2 -10 2 -26 0 -35z
m1420 -1149 c-3 -3 -12 -4 -19 -1 -8 3 -5 6 6 6 11 1 17 -2 13 -5z m-44 -11
c-7 -2 -21 -2 -30 0 -10 3 -4 5 12 5 17 0 24 -2 18 -5z m-70 -10 c-7 -2 -21
-2 -30 0 -10 3 -4 5 12 5 17 0 24 -2 18 -5z"/>
<path d="M1160 2395 c0 -2 18 -14 40 -25 22 -11 40 -18 40 -15 0 2 -18 14 -40
25 -22 11 -40 18 -40 15z"/>
<path d="M970 2377 c0 -8 93 -77 104 -77 6 0 -1 8 -16 18 -14 9 -40 27 -57 40
-17 13 -31 21 -31 19z"/>
<path d="M890 2290 c19 -16 39 -29 44 -30 5 0 -8 14 -29 30 -49 39 -60 39 -15
0z"/>
<path d="M806 2243 c24 -24 49 -43 56 -43 7 0 4 6 -7 12 -11 6 -36 25 -55 42
-24 21 -22 17 6 -11z"/>
<path d="M595 2140 c10 -11 20 -20 23 -20 3 0 -3 9 -13 20 -10 11 -20 20 -23
20 -3 0 3 -9 13 -20z"/>
<path d="M530 2076 c0 -2 8 -10 18 -17 15 -13 16 -12 3 4 -13 16 -21 21 -21
13z"/>
<path d="M447 1879 c7 -7 15 -10 18 -7 3 3 -2 9 -12 12 -14 6 -15 5 -6 -5z"/>
<path d="M1720 1799 c-23 -5 -51 -24 -82 -57 -45 -48 -48 -53 -48 -106 0 -41
8 -72 30 -118 l30 -63 88 3 c99 4 124 16 159 78 42 73 21 198 -40 238 -32 22
-97 33 -137 25z m106 -34 c17 -13 16 -14 -13 -4 -34 11 -42 19 -20 19 7 0 22
-7 33 -15z m-10 -46 c21 -24 17 -24 -36 0 -23 10 -36 21 -28 23 20 7 45 -2 64
-23z m-133 3 c-10 -10 -20 -17 -22 -16 -6 5 20 34 30 34 5 0 1 -8 -8 -18z m89
-32 c5 0 7 4 4 9 -3 5 11 3 31 -4 21 -7 39 -18 41 -24 5 -15 -4 -14 -34 5 -13
9 -27 14 -30 12 -3 -3 11 -15 31 -26 19 -12 35 -26 35 -32 0 -13 -17 -13 -25
-1 -3 6 -31 24 -63 42 -70 40 -65 36 -57 49 4 7 15 4 32 -10 14 -11 30 -20 35
-20z m36 -62 c39 -27 54 -48 33 -48 -15 0 -161 99 -161 110 0 12 67 -20 128
-62z m-64 -27 c28 -28 48 -53 45 -56 -3 -2 -35 13 -72 35 l-67 39 -1 -27 c-2
-25 -2 -25 -6 -4 -3 13 1 37 7 53 15 35 25 31 94 -40z m79 -25 c9 -6 17 -16
17 -23 0 -28 -20 -19 -66 29 l-49 51 40 -23 c22 -13 48 -29 58 -34z m-123 -10
c6 -8 17 -13 23 -10 7 2 26 -5 42 -16 l30 -20 -32 0 c-22 0 -43 10 -65 30 -18
16 -28 30 -22 30 6 0 17 -6 24 -14z m146 -71 c-11 -8 -25 -15 -30 -15 -6 1 0
7 14 15 32 19 40 18 16 0z"/>
<path d="M752 1774 c-17 -18 -38 -58 -52 -102 l-24 -74 19 -36 c14 -26 37 -46
75 -65 47 -24 63 -28 112 -24 51 4 60 9 95 47 66 72 79 129 43 187 -25 42
-107 82 -182 90 -53 5 -59 4 -86 -23z m38 -9 c-33 -19 -50 -18 -26 0 11 8 27
15 35 15 10 -1 7 -6 -9 -15z m131 -22 c13 -15 12 -15 -11 -3 -34 17 -36 20
-18 20 9 0 22 -7 29 -17z m-47 -18 c11 -8 15 -15 10 -15 -6 0 -19 7 -30 15
-10 8 -14 14 -9 14 6 0 19 -6 29 -14z m49 -70 c9 -21 -6 -19 -63 10 -48 24
-57 34 -44 48 9 9 101 -40 107 -58z m33 43 c9 -13 -1 -19 -19 -12 -24 9 -30
33 -6 27 11 -3 22 -10 25 -15z m44 12 c0 -5 -2 -10 -4 -10 -3 0 -8 5 -11 10
-3 6 -1 10 4 10 6 0 11 -4 11 -10z m-247 -12 c-6 -7 -15 -26 -22 -43 l-11 -30
6 30 c5 28 21 55 31 55 3 0 1 -6 -4 -12z m267 -60 c0 -51 -5 -47 -13 10 -3 24
-1 40 4 36 5 -3 9 -24 9 -46z m-156 -6 c28 -21 51 -47 53 -59 1 -13 0 -22 -5
-22 -28 5 -35 -2 -16 -16 10 -8 14 -15 8 -15 -6 0 -17 7 -24 15 -7 8 -9 15 -4
15 4 0 -13 13 -39 30 -26 16 -47 34 -47 40 0 17 14 11 50 -20 40 -34 47 -36
47 -15 0 8 -20 26 -44 40 -23 14 -43 30 -43 35 0 17 13 11 64 -28z m-104 -18
c0 -27 -4 -43 -10 -39 -11 7 -13 45 -4 69 10 26 14 18 14 -30z m170 -5 c0 -6
-13 -1 -30 11 -16 12 -30 23 -30 26 0 2 14 -2 30 -11 17 -9 30 -20 30 -26z
m28 16 c-3 -3 -9 2 -12 12 -6 14 -5 15 5 6 7 -7 10 -15 7 -18z m-2 -62 c-10
-26 -18 -8 -9 23 5 21 8 24 11 11 2 -10 1 -25 -2 -34z m-119 -5 c13 -22 12
-38 -3 -38 -8 0 -14 3 -15 8 0 4 -2 15 -4 25 -4 20 10 23 22 5z"/>
<path d="M2330 1726 c0 -2 8 -10 18 -17 15 -13 16 -12 3 4 -13 16 -21 21 -21
13z"/>
<path d="M2350 1605 c13 -14 26 -25 28 -25 3 0 -5 11 -18 25 -13 14 -26 25
-28 25 -3 0 5 -11 18 -25z"/>
<path d="M2405 1560 c10 -11 20 -20 23 -20 3 0 -3 9 -13 20 -10 11 -20 20 -23
20 -3 0 3 -9 13 -20z"/>
<path d="M2350 1516 c0 -2 14 -14 30 -26 17 -12 30 -19 30 -16 0 2 -13 14 -30
26 -16 12 -30 19 -30 16z"/>
<path d="M2374 1281 c7 -11 46 -35 46 -28 0 3 -12 12 -26 22 -15 9 -23 12 -20
6z"/>
<path d="M2437 1239 c7 -7 15 -10 18 -7 3 3 -2 9 -12 12 -14 6 -15 5 -6 -5z"/>
<path d="M2047 1214 c-4 -4 -49 -8 -100 -9 -53 -1 -100 -6 -112 -13 -18 -11
-14 -12 25 -11 66 2 83 0 104 -16 18 -14 18 -16 -4 -77 -62 -174 -170 -275
-369 -348 -263 -96 -572 -72 -758 59 -83 60 -111 89 -157 165 -26 43 -36 71
-36 102 0 39 3 44 45 68 43 26 60 56 32 56 -8 0 -40 -10 -73 -21 -32 -12 -92
-33 -133 -48 -41 -14 -76 -31 -78 -38 -3 -9 4 -10 26 -3 l30 8 -16 -24 c-23
-37 -3 -51 27 -19 31 33 46 32 59 -5 31 -91 222 -286 348 -358 140 -78 329
-109 516 -82 74 10 105 21 204 72 151 78 186 102 260 181 61 66 110 142 134
210 13 37 29 50 29 22 0 -9 9 -15 24 -15 12 0 37 -5 55 -11 24 -9 31 -17 31
-37 0 -15 5 -34 10 -42 7 -11 10 -5 10 24 0 55 -36 123 -81 155 -21 14 -39 34
-41 44 -2 11 -6 15 -11 11z m-1396 -273 l21 -36 -32 35 c-42 47 -73 108 -65
128 5 13 13 3 31 -37 13 -30 33 -70 45 -90z m969 -225 c0 -2 -30 -16 -66 -30
-85 -34 -206 -49 -304 -38 l-75 9 100 2 c107 2 225 20 290 44 43 17 55 19 55
13z m-480 -66 c47 -10 71 -19 55 -19 -36 -1 -140 25 -164 40 -13 9 -13 9 4 4
11 -4 58 -15 105 -25z m23 13 c-7 -2 -21 -2 -30 0 -10 3 -4 5 12 5 17 0 24 -2
18 -5z"/>
<path d="M2320 1146 c0 -2 8 -10 18 -17 15 -13 16 -12 3 4 -13 16 -21 21 -21
13z"/>
<path d="M2360 1116 c0 -2 8 -10 18 -17 15 -13 16 -12 3 4 -13 16 -21 21 -21
13z"/>
<path d="M2400 1086 c0 -2 8 -10 18 -17 15 -13 16 -12 3 4 -13 16 -21 21 -21
13z"/>
<path d="M2355 1050 c10 -11 20 -20 23 -20 3 0 -3 9 -13 20 -10 11 -20 20 -23
20 -3 0 3 -9 13 -20z"/>
<path d="M2240 1025 c13 -14 26 -25 28 -25 3 0 -5 11 -18 25 -13 14 -26 25
-28 25 -3 0 5 -11 18 -25z"/>
<path d="M2410 1005 c13 -14 26 -25 28 -25 3 0 -5 11 -18 25 -13 14 -26 25
-28 25 -3 0 5 -11 18 -25z"/>
<path d="M2300 976 c0 -2 8 -10 18 -17 15 -13 16 -12 3 4 -13 16 -21 21 -21
13z"/>
<path d="M2320 856 c0 -2 8 -10 18 -17 15 -13 16 -12 3 4 -13 16 -21 21 -21
13z"/>
<path d="M2160 795 c13 -14 26 -25 28 -25 3 0 -5 11 -18 25 -13 14 -26 25 -28
25 -3 0 5 -11 18 -25z"/>
<path d="M2277 799 c12 -15 73 -53 73 -46 0 2 -19 17 -42 32 -24 16 -38 22
-31 14z"/>
<path d="M2210 756 c0 -2 8 -10 18 -17 15 -13 16 -12 3 4 -13 16 -21 21 -21
13z"/>
<path d="M1725 490 c10 -11 20 -20 23 -20 3 0 -3 9 -13 20 -10 11 -20 20 -23
20 -3 0 3 -9 13 -20z"/>
<path d="M1870 476 c0 -2 8 -10 18 -17 15 -13 16 -12 3 4 -13 16 -21 21 -21
13z"/>
<path d="M1780 446 c0 -2 8 -10 18 -17 15 -13 16 -12 3 4 -13 16 -21 21 -21
13z"/>
<path d="M2020 446 c0 -2 8 -10 18 -17 15 -13 16 -12 3 4 -13 16 -21 21 -21
13z"/>
<path d="M1920 436 c0 -2 8 -10 18 -17 15 -13 16 -12 3 4 -13 16 -21 21 -21
13z"/>
<path d="M1725 390 c10 -11 20 -20 23 -20 3 0 -3 9 -13 20 -10 11 -20 20 -23
20 -3 0 3 -9 13 -20z"/>
<path d="M1830 406 c0 -2 8 -10 18 -17 15 -13 16 -12 3 4 -13 16 -21 21 -21
13z"/>
<path d="M1960 406 c0 -2 14 -14 30 -26 17 -12 30 -19 30 -16 0 2 -13 14 -30
26 -16 12 -30 19 -30 16z"/>
<path d="M1350 366 c0 -2 8 -10 18 -17 15 -13 16 -12 3 4 -13 16 -21 21 -21
13z"/>
<path d="M1770 356 c0 -2 8 -10 18 -17 15 -13 16 -12 3 4 -13 16 -21 21 -21
13z"/>
<path d="M1400 326 c0 -2 8 -10 18 -17 15 -13 16 -12 3 4 -13 16 -21 21 -21
13z"/>
<path d="M1470 276 c0 -2 8 -10 18 -17 15 -13 16 -12 3 4 -13 16 -21 21 -21
13z"/>
<path d="M1215 200 c21 -22 41 -40 44 -40 3 0 -13 18 -34 40 -21 22 -41 40
-44 40 -3 0 13 -18 34 -40z"/>
<path d="M1210 146 c0 -2 8 -10 18 -17 15 -13 16 -12 3 4 -13 16 -21 21 -21
13z"/>
<path d="M1290 136 c0 -2 8 -10 18 -17 15 -13 16 -12 3 4 -13 16 -21 21 -21
13z"/>
<path d="M2310 1986 c0 -2 14 -14 30 -26 17 -12 30 -19 30 -16 0 2 -13 14 -30
26 -16 12 -30 19 -30 16z"/>
</g>
</svg>
